<?xml version="1.0"?>
<svg xmlns="http://www.w3.org/2000/svg" x="0" y="0" width="250" height="250" >

  <circle cx="57" cy="125" r="32" fill="#f55"  />
  <circle cx="141" cy="105" r="27" fill="#f55"  />
  <circle cx="135" cy="145" r="27" fill="#f55"  />
  <circle cx="181" cy="90" r="27" fill="#f55"  />
  <circle cx="175" cy="130" r="27" fill="#f55"  />
  <circle cx="222" cy="90" r="27" fill="#f55"  />
  <circle cx="216" cy="130" r="27" fill="#f55"  />

  <circle cx="141" cy="105" r="22" fill="#000" />
  <circle cx="135" cy="145" r="22" fill="#000" />
  <circle cx="181" cy="90" r="22" fill="#000" />
  <circle cx="175" cy="130" r="22" fill="#000" />
  <circle cx="222" cy="90" r="22" fill="#000" />
  <circle cx="216" cy="130" r="22" fill="#000" />

  <circle cx="141" cy="105" r="20" fill="#f55" />
  <circle cx="135" cy="145" r="20" fill="#f55" />
  <circle cx="181" cy="90" r="20" fill="#f55" />
  <circle cx="175" cy="130" r="20" fill="#f55" />
  <circle cx="222" cy="90" r="20" fill="#f55" />
  <circle cx="216" cy="130" r="20" fill="#f55" />
</svg>
